<svg width="20" height="243" viewBox="0 0 20 243" fill="none" xmlns="http://www.w3.org/2000/svg">
<path fill-rule="evenodd" clip-rule="evenodd" d="M7 93L13 93L13 87L7 87L7 93ZM20 100L20 80L1.74846e-06 80L0 100L20 100Z" fill="#FBD84F"/>
<path fill-rule="evenodd" clip-rule="evenodd" d="M7 53L13 53L13 47L7 47L7 53ZM20 60L20 40L1.74846e-06 40L0 60L20 60Z" fill="#FBD84F"/>
<path fill-rule="evenodd" clip-rule="evenodd" d="M7 13L13 13L13 7L7 7L7 13ZM20 20L20 0L1.74846e-06 -1.74846e-06L0 20L20 20Z" fill="#FBD84F"/>
<path fill-rule="evenodd" clip-rule="evenodd" d="M9.5 243V140H10.5V243H9.5Z" fill="#2B2D33"/>
</svg>
