<svg width="34" height="35" viewBox="0 0 34 35" fill="none" xmlns="http://www.w3.org/2000/svg">
<path d="M33.4137 28.6379H0.586233C0.262503 28.6379 0 28.3754 0 28.0517V6.94829C0 6.62456 0.262503 6.36206 0.586233 6.36206H33.4138C33.7375 6.36206 34 6.62456 34 6.94829V28.0517C33.9999 28.3755 33.7374 28.6379 33.4137 28.6379Z" fill="#FF4B55"/>
<path d="M5.64504 9.84538L6.20392 11.5211L7.97032 11.5348C8.19902 11.5365 8.29385 11.8284 8.10984 11.9642L6.68888 13.0135L7.22166 14.6977C7.29059 14.9158 7.04236 15.0961 6.85629 14.9631L5.41926 13.9359L3.98224 14.963C3.79617 15.0961 3.54794 14.9156 3.61687 14.6976L4.14965 13.0134L2.72869 11.9642C2.54468 11.8283 2.63951 11.5365 2.86821 11.5348L4.63461 11.5211L5.19348 9.84538C5.26587 9.62836 5.57273 9.62836 5.64504 9.84538Z" fill="#FBD84F"/>
<path d="M12.0594 10.2584L12.4601 10.805L13.1069 10.6027C13.1906 10.5765 13.2595 10.672 13.2082 10.7431L12.8123 11.293L13.2045 11.8456C13.2553 11.9171 13.1857 12.0122 13.1022 11.9854L12.4568 11.7788L12.0525 12.3226C12.0001 12.393 11.8882 12.3562 11.8879 12.2686L11.8849 11.5909L11.2428 11.3743C11.1597 11.3462 11.16 11.2286 11.2434 11.2011L11.8868 10.9888L11.8944 10.3112C11.8953 10.2236 12.0075 10.1877 12.0594 10.2584Z" fill="#FBD84F"/>
<path d="M9.61949 8.62945L10.2932 8.70263L10.5806 8.08897C10.6178 8.00955 10.7347 8.02316 10.7526 8.10903L10.8912 8.77229L11.5636 8.85596C11.6507 8.86679 11.6738 8.9822 11.5977 9.02583L11.0096 9.36251L11.1379 10.0279C11.1545 10.1141 11.0519 10.1717 10.9869 10.1128L10.4849 9.65762L9.89176 9.98514C9.81499 10.0276 9.72833 9.94775 9.76432 9.86773L10.0421 9.24962L9.54724 8.78664C9.48323 8.727 9.5323 8.62002 9.61949 8.62945Z" fill="#FBD84F"/>
<path d="M10.6845 15.1964L10.2837 15.743L9.63701 15.5407C9.55327 15.5145 9.48441 15.61 9.53568 15.6811L9.93159 16.231L9.53939 16.7836C9.48859 16.8551 9.55812 16.9501 9.64166 16.9234L10.2871 16.7168L10.6914 17.2606C10.7437 17.331 10.8556 17.2942 10.856 17.2065L10.8589 16.5289L11.5011 16.3123C11.5842 16.2842 11.5838 16.1666 11.5005 16.1391L10.857 15.9268L10.8495 15.2492C10.8484 15.1617 10.7364 15.1256 10.6845 15.1964Z" fill="#FBD84F"/>
<path d="M13.1241 13.6658L12.4504 13.739L12.163 13.1253C12.1258 13.0459 12.0089 13.0595 11.991 13.1454L11.8524 13.8087L11.18 13.8923C11.0929 13.9032 11.0697 14.0186 11.1459 14.0622L11.7339 14.3989L11.6057 15.0643C11.5891 15.1505 11.6917 15.2081 11.7567 15.1492L12.2587 14.694L12.8518 15.0215C12.9286 15.0639 13.0152 14.9841 12.9792 14.9041L12.7014 14.286L13.1963 13.823C13.2605 13.7634 13.2114 13.6564 13.1241 13.6658Z" fill="#FBD84F"/>
</svg>
