<svg width="34" height="35" viewBox="0 0 34 35" fill="none" xmlns="http://www.w3.org/2000/svg">
<path d="M33.4137 28.6379H0.586233C0.262503 28.6379 0 28.3754 0 28.0517V6.94829C0 6.62456 0.262503 6.36206 0.586233 6.36206H33.4138C33.7375 6.36206 34 6.62456 34 6.94829V28.0517C33.9999 28.3755 33.7374 28.6379 33.4137 28.6379Z" fill="#41479B"/>
<path d="M17.2384 8.91267L17.4734 9.61744L18.2163 9.62322C18.3126 9.62395 18.3524 9.74666 18.275 9.80384L17.6774 10.2452L17.9014 10.9535C17.9305 11.0451 17.8261 11.1211 17.7478 11.0651L17.1434 10.6331L16.539 11.0651C16.4608 11.121 16.3564 11.0452 16.3854 10.9535L16.6094 10.2452L16.0118 9.80384C15.9344 9.74666 15.9743 9.62395 16.0705 9.62322L16.8134 9.61744L17.0484 8.91267C17.0788 8.82143 17.208 8.82143 17.2384 8.91267Z" fill="#FBD84F"/>
<path d="M17.2384 24.044L17.4734 24.7488L18.2163 24.7546C18.3126 24.7553 18.3524 24.878 18.275 24.9352L17.6774 25.3765L17.9014 26.0848C17.9305 26.1764 17.8261 26.2524 17.7478 26.1964L17.1434 25.7644L16.539 26.1964C16.4608 26.2523 16.3564 26.1765 16.3854 26.0848L16.6094 25.3765L16.0118 24.9352C15.9344 24.878 15.9743 24.7553 16.0705 24.7546L16.8134 24.7488L17.0484 24.044C17.0788 23.9528 17.208 23.9528 17.2384 24.044Z" fill="#FBD84F"/>
<path d="M24.8043 16.4783L25.0394 17.1831L25.7822 17.1889C25.8785 17.1896 25.9183 17.3123 25.8409 17.3695L25.2433 17.8109L25.4673 18.5192C25.4964 18.6108 25.392 18.6868 25.3137 18.6308L24.7093 18.1987L24.105 18.6308C24.0267 18.6867 23.9223 18.6109 23.9513 18.5192L24.1753 17.8109L23.5777 17.3695C23.5003 17.3123 23.5402 17.1896 23.6364 17.1889L24.3793 17.1831L24.6144 16.4783C24.6447 16.3871 24.7739 16.3871 24.8043 16.4783Z" fill="#FBD84F"/>
<path d="M9.67269 16.4783L9.90777 17.1831L10.6507 17.1889C10.7469 17.1896 10.7867 17.3123 10.7094 17.3695L10.1117 17.8109L10.3358 18.5192C10.3648 18.6108 10.2604 18.6868 10.1821 18.6308L9.57773 18.1987L8.97336 18.6308C8.89514 18.6867 8.79068 18.6109 8.8197 18.5192L9.04375 17.8109L8.4461 17.3695C8.36874 17.3123 8.40858 17.1896 8.5048 17.1889L9.24769 17.1831L9.48277 16.4783C9.51318 16.3871 9.64234 16.3871 9.67269 16.4783Z" fill="#FBD84F"/>
<path d="M10.8084 12.5274L11.0435 13.2322L11.7864 13.238C11.8826 13.2387 11.9225 13.3614 11.8451 13.4186L11.2474 13.8599L11.4715 14.5682C11.5005 14.6598 11.3961 14.7358 11.3178 14.6798L10.7135 14.2478L10.1091 14.6798C10.0309 14.7358 9.92642 14.6599 9.95544 14.5682L10.1795 13.8599L9.58184 13.4186C9.50448 13.3614 9.54432 13.2387 9.64054 13.238L10.3834 13.2322L10.6185 12.5274C10.6489 12.4362 10.7779 12.4362 10.8084 12.5274Z" fill="#FBD84F"/>
<path d="M23.9127 20.0931L24.1478 20.7979L24.8906 20.8036C24.9869 20.8044 25.0267 20.9271 24.9493 20.9843L24.3517 21.4256L24.5757 22.1339C24.6048 22.2255 24.5004 22.3015 24.4221 22.2455L23.8177 21.8135L23.2134 22.2455C23.1351 22.3014 23.0307 22.2256 23.0597 22.1339L23.2837 21.4256L22.6861 20.9843C22.6087 20.9271 22.6486 20.8044 22.7448 20.8036L23.4877 20.7979L23.7228 20.0931C23.7532 20.0018 23.8823 20.0018 23.9127 20.0931Z" fill="#FBD84F"/>
<path d="M21.1434 9.75813L21.3785 10.4629L22.1214 10.4687C22.2176 10.4694 22.2574 10.5921 22.1801 10.6493L21.5824 11.0906L21.8065 11.7989C21.8355 11.8906 21.7311 11.9665 21.6528 11.9105L21.0484 11.4785L20.4441 11.9105C20.3658 11.9665 20.2614 11.8906 20.2904 11.7989L20.5145 11.0906L19.9168 10.6493C19.8394 10.5921 19.8793 10.4694 19.9755 10.4687L20.7184 10.4629L20.9535 9.75813C20.9838 9.66689 21.1128 9.66689 21.1434 9.75813Z" fill="#FBD84F"/>
<path d="M13.5777 22.8624L13.8128 23.5671L14.5557 23.5729C14.6519 23.5737 14.6917 23.6964 14.6144 23.7535L14.0167 24.1949L14.2408 24.9032C14.2698 24.9948 14.1654 25.0708 14.0871 25.0148L13.4828 24.5828L12.8784 25.0148C12.8002 25.0707 12.6957 24.9949 12.7247 24.9032L12.9488 24.1949L12.3511 23.7535C12.2738 23.6964 12.3136 23.5737 12.4098 23.5729L13.1527 23.5671L13.3878 22.8624C13.4182 22.7711 13.5472 22.7711 13.5777 22.8624Z" fill="#FBD84F"/>
<path d="M23.7228 12.5274L23.4877 13.2322L22.7448 13.238C22.6486 13.2387 22.6087 13.3614 22.6861 13.4186L23.2837 13.8599L23.0597 14.5682C23.0307 14.6598 23.1351 14.7358 23.2134 14.6798L23.8177 14.2478L24.4221 14.6798C24.5003 14.7358 24.6048 14.6599 24.5757 14.5682L24.3517 13.8599L24.9493 13.4186C25.0267 13.3614 24.9869 13.2387 24.8906 13.238L24.1478 13.2322L23.9127 12.5274C23.8823 12.4362 23.7532 12.4362 23.7228 12.5274Z" fill="#FBD84F"/>
<path d="M10.6185 20.0931L10.3834 20.7979L9.64054 20.8036C9.54432 20.8044 9.50448 20.9271 9.58184 20.9843L10.1795 21.4256L9.95544 22.1339C9.92642 22.2255 10.0308 22.3015 10.1091 22.2455L10.7135 21.8135L11.3178 22.2455C11.3961 22.3014 11.5005 22.2256 11.4715 22.1339L11.2474 21.4256L11.8451 20.9843C11.9225 20.9271 11.8826 20.8044 11.7864 20.8036L11.0435 20.7979L10.8084 20.0931C10.7779 20.0018 10.6489 20.0018 10.6185 20.0931Z" fill="#FBD84F"/>
<path d="M13.3878 9.75813L13.1527 10.4629L12.4098 10.4687C12.3136 10.4694 12.2738 10.5921 12.3511 10.6493L12.9488 11.0906L12.7247 11.7989C12.6957 11.8906 12.8001 11.9665 12.8784 11.9105L13.4828 11.4785L14.0871 11.9105C14.1653 11.9665 14.2698 11.8906 14.2408 11.7989L14.0167 11.0906L14.6144 10.6493C14.6917 10.5921 14.6519 10.4694 14.5557 10.4687L13.8128 10.4629L13.5777 9.75813C13.5472 9.66689 13.4182 9.66689 13.3878 9.75813Z" fill="#FBD84F"/>
<path d="M20.9535 22.8624L20.7184 23.5671L19.9755 23.5729C19.8793 23.5737 19.8394 23.6964 19.9168 23.7535L20.5145 24.1949L20.2904 24.9032C20.2614 24.9948 20.3658 25.0708 20.4441 25.0148L21.0484 24.5828L21.6528 25.0148C21.731 25.0707 21.8355 24.9949 21.8065 24.9032L21.5824 24.1949L22.1801 23.7535C22.2574 23.6964 22.2176 23.5737 22.1214 23.5729L21.3785 23.5671L21.1434 22.8624C21.1129 22.7711 20.9839 22.7711 20.9535 22.8624Z" fill="#FBD84F"/>
</svg>
