<svg width="46" height="46" viewBox="0 0 46 46" fill="none" xmlns="http://www.w3.org/2000/svg">
<path d="M43.3047 10.7809V5.39062H40.6094V10.7809H37.9144V5.39062H35.2191V10.7809H32.5238V21.5621H35.2191V32.5227H13.4836L10.7883 27.1321H0L6.28906 45.9989H46C46 44.565 46 12.3539 46 10.7809H43.3047ZM35.2191 13.4762H43.3047V18.8668H35.2191V13.4762ZM9.12265 29.8274L11.818 35.218H43.3047V37.913H6.43471L3.7394 29.8274H9.12265ZM8.23158 43.3036L7.33315 40.6083H43.3047V43.3036H8.23158ZM43.3047 32.5227H37.9144V21.5621H43.3047V32.5227Z" fill="#2B2D33"/>
<path d="M13.4772 10.7809H5.3916V24.2571H29.6487V10.7809H21.5631V2.69531H35.0393V0H0.000976562V2.69531H13.4772V10.7809ZM26.9534 21.5621H8.08691V13.4762H26.9534V21.5621ZM16.1725 10.7809V8.08559H18.8678V10.7809H16.1725ZM18.8678 5.39062H16.1725V2.69531H18.8678V5.39062Z" fill="#2B2D33"/>
<path d="M10.782 14.8239H13.4773V20.2145H10.782V14.8239Z" fill="#2B2D33"/>
<path d="M16.1726 14.8239H18.8679V20.2145H16.1726V14.8239Z" fill="#2B2D33"/>
<path d="M21.5632 14.8239H24.2582V20.2145H21.5632V14.8239Z" fill="#2B2D33"/>
</svg>
