<svg width="46" height="46" viewBox="0 0 46 46" fill="none" xmlns="http://www.w3.org/2000/svg">
<path d="M1.4375 46H33.7812V2.69531H28.3906V0H25.6953V2.69531H23V0H20.3047V2.69531H17.6094V0H14.9141V2.69531H12.2188V0H9.52344V2.69531H4.13281V10.8711H1.4375V46ZM6.82812 5.39062H9.52344V8.08594H12.2188V5.39062H14.9141V8.08594H17.6094V5.39062H20.3047V8.08594H23V5.39062H25.6953V8.08594H28.3906V5.39062H31.0859V43.3047H25.6953V10.8711H6.82812V5.39062ZM4.13281 13.5664H23V43.3047H4.13281V13.5664Z" fill="#2B2D33"/>
<path d="M6.82812 24.3477H20.3047V16.2617H6.82812V24.3477ZM9.52344 18.957H17.6094V21.6523H9.52344V18.957Z" fill="#2B2D33"/>
<path d="M6.82812 27.043H9.52344V29.7383H6.82812V27.043Z" fill="#2B2D33"/>
<path d="M12.2188 27.043H14.9141V29.7383H12.2188V27.043Z" fill="#2B2D33"/>
<path d="M6.82812 32.4336H9.52344V35.1289H6.82812V32.4336Z" fill="#2B2D33"/>
<path d="M12.2188 32.4336H14.9141V35.1289H12.2188V32.4336Z" fill="#2B2D33"/>
<path d="M6.82812 37.8242H9.52344V40.5195H6.82812V37.8242Z" fill="#2B2D33"/>
<path d="M12.2188 37.8242H14.9141V40.5195H12.2188V37.8242Z" fill="#2B2D33"/>
<path d="M17.6094 27.043H20.3047V29.7383H17.6094V27.043Z" fill="#2B2D33"/>
<path d="M17.6094 32.4336H20.3047V35.1289H17.6094V32.4336Z" fill="#2B2D33"/>
<path d="M17.6094 37.8242H20.3047V40.5195H17.6094V37.8242Z" fill="#2B2D33"/>
<path d="M41.8672 46V41.4987L44.5625 36.838V2.69531H41.8672V0H39.1719V2.69531H36.4766V36.838L39.1719 41.4987V46H41.8672ZM40.5195 38.4454L39.1719 36.1151V13.5664H41.8672V36.1151L40.5195 38.4454ZM41.8672 5.39062V10.8711H39.1719V5.39062H41.8672Z" fill="#2B2D33"/>
</svg>
