<svg width="46" height="46" viewBox="0 0 46 46" fill="none" xmlns="http://www.w3.org/2000/svg">
<path d="M38.2734 8.35547V4.49219C38.2734 2.01517 36.2583 0 33.7812 0H17.6094C15.1324 0 13.1172 2.01517 13.1172 4.49219V11.0508H11.7695C9.54028 11.0508 7.72656 12.8645 7.72656 15.0938V41.957C7.72656 44.1863 9.54028 46 11.7695 46H33.332C35.5613 46 37.375 44.1863 37.375 41.957V15.0938C37.375 12.8645 35.5613 11.0508 33.332 11.0508H31.9844V8.35547H38.2734ZM33.7812 2.69531C34.772 2.69531 35.5781 3.50145 35.5781 4.49219V5.66016H31.9844V4.49219C31.9844 3.50145 32.7905 2.69531 33.7812 2.69531ZM15.8125 4.49219C15.8125 3.50145 16.6186 2.69531 17.6094 2.69531H29.6642C29.4231 3.24596 29.2891 3.85381 29.2891 4.49219V16.3516H15.8125V4.49219ZM33.332 13.7461C34.075 13.7461 34.6797 14.3508 34.6797 15.0938V41.957C34.6797 42.7 34.075 43.3047 33.332 43.3047H11.7695C11.0266 43.3047 10.4219 42.7 10.4219 41.957V15.0938C10.4219 14.3508 11.0266 13.7461 11.7695 13.7461H13.1172V19.0469H31.9844V13.7461H33.332Z" fill="#2B2D33"/>
<path d="M13.1172 21.7422H31.9844V24.4375H13.1172V21.7422Z" fill="#2B2D33"/>
<path d="M20.3945 27.1328H24.707V29.8281H20.3945V27.1328Z" fill="#2B2D33"/>
<path d="M27.6719 27.1328H31.9844V29.8281H27.6719V27.1328Z" fill="#2B2D33"/>
<path d="M13.1172 27.1328H17.4297V29.8281H13.1172V27.1328Z" fill="#2B2D33"/>
<path d="M20.3945 32.5234H24.707V35.2188H20.3945V32.5234Z" fill="#2B2D33"/>
<path d="M27.6719 32.5234H31.9844V35.2188H27.6719V32.5234Z" fill="#2B2D33"/>
<path d="M13.1172 32.5234H17.4297V35.2188H13.1172V32.5234Z" fill="#2B2D33"/>
<path d="M20.3945 37.9141H24.707V40.6094H20.3945V37.9141Z" fill="#2B2D33"/>
<path d="M27.6719 37.9141H31.9844V40.6094H27.6719V37.9141Z" fill="#2B2D33"/>
<path d="M13.1172 37.9141H17.4297V40.6094H13.1172V37.9141Z" fill="#2B2D33"/>
</svg>
