<svg width="46" height="46" viewBox="0 0 46 46" fill="none" xmlns="http://www.w3.org/2000/svg">
<g clip-path="url(#clip0_2_2382)">
<path d="M38.7234 14.2844C38.7256 14.2822 26.417 1.9736 26.417 1.9736C25.1947 0.755676 23.5101 0 21.6523 0H5.30078V46H40.6992V19.0469C40.6992 17.1892 39.9435 15.5046 38.7234 14.2844ZM28.3906 7.75891L32.9403 12.3086H28.3906V7.75891ZM38.0039 43.3047H7.99609V2.69531H21.6523C23.8816 2.69531 25.6953 4.50899 25.6953 6.73828V15.0039H33.9609C36.1902 15.0039 38.0039 16.8176 38.0039 19.0469V43.3047Z" fill="#2B2D33"/>
<path d="M17.4297 33.8711H33.9609V36.5664H17.4297V33.8711Z" fill="#2B2D33"/>
<path d="M17.4297 28.4805H33.9609V31.1758H17.4297V28.4805Z" fill="#2B2D33"/>
<path d="M17.4297 23.0898H33.9609V25.7852H17.4297V23.0898Z" fill="#2B2D33"/>
<path d="M12.0391 23.0898H14.7344V25.7852H12.0391V23.0898Z" fill="#2B2D33"/>
<path d="M12.0391 28.4805H14.7344V31.1758H12.0391V28.4805Z" fill="#2B2D33"/>
<path d="M12.0391 33.8711H14.7344V36.5664H12.0391V33.8711Z" fill="#2B2D33"/>
</g>
<defs>
<clipPath id="clip0_2_2382">
<rect width="46" height="46" fill="white"/>
</clipPath>
</defs>
</svg>
