<svg width="46" height="46" viewBox="0 0 46 46" fill="none" xmlns="http://www.w3.org/2000/svg">
<g clip-path="url(#clip0_2_2436)">
<path d="M46 21.0985L37.074 9.67321H32.0144V5.83984H0V35.3685H5.42737C5.84658 38.0787 8.1951 40.1602 11.0209 40.1602C13.8466 40.1602 16.1951 38.0787 16.6144 35.3685H29.3857C29.8049 38.0787 32.1535 40.1602 34.9791 40.1602C37.8048 40.1602 40.1534 38.0787 40.5726 35.3685H46V21.0985ZM37.944 34.5C37.944 36.1348 36.6139 37.4648 34.9791 37.4648C33.3443 37.4648 32.0143 36.1348 32.0143 34.5C32.0143 32.8652 33.3443 31.5352 34.9791 31.5352C36.6139 31.5352 37.944 32.8652 37.944 34.5ZM13.9857 34.5C13.9857 36.1348 12.6557 37.4648 11.0209 37.4648C9.38607 37.4648 8.05602 36.1348 8.05602 34.5C8.05602 32.8652 9.38607 31.5352 11.0209 31.5352C12.6557 31.5352 13.9857 32.8652 13.9857 34.5ZM11.0209 28.8398C8.53902 28.8398 6.4267 30.4462 5.66492 32.6732H2.69531V23.8685H21.1415L23.8283 14.4648H2.69531V8.53516H29.319V32.6732H16.3768C15.615 30.4462 13.5027 28.8398 11.0209 28.8398ZM2.6954 21.1732V17.1602H20.2551L19.1085 21.1732H2.6954ZM34.9791 28.8398C33.8927 28.8398 32.8772 29.1482 32.0143 29.6811V22.9102H43.3047V32.6732H40.3351C39.5734 30.4462 37.461 28.8398 34.9791 28.8398ZM32.0143 20.2148V12.3685H35.7593L41.8894 20.2148H32.0143Z" fill="#2B2D33"/>
</g>
<defs>
<clipPath id="clip0_2_2436">
<rect width="46" height="46" fill="white"/>
</clipPath>
</defs>
</svg>
