<svg width="46" height="46" viewBox="0 0 46 46" fill="none" xmlns="http://www.w3.org/2000/svg">
<g clip-path="url(#clip0_2_2426)">
<path d="M6.76538 16.2353H28.4124V18.9412H6.76538V16.2353Z" fill="#2B2D33"/>
<path d="M6.76538 21.647H12.1771V24.3529H6.76538V21.647Z" fill="#2B2D33"/>
<path d="M14.8831 21.647H28.4125V24.3529H14.8831V21.647Z" fill="#2B2D33"/>
<path d="M6.76538 27.0588H12.1771V29.7647H6.76538V27.0588Z" fill="#2B2D33"/>
<path d="M6.76538 32.4706H12.1771V35.1765H6.76538V32.4706Z" fill="#2B2D33"/>
<path d="M6.76538 37.8823H12.1771V40.5882H6.76538V37.8823Z" fill="#2B2D33"/>
<path d="M42.7808 11.0776C40.8974 9.8688 38.3816 10.4179 37.1728 12.3013L33.8243 17.5189V8.11764H28.4125V7.50287C28.4125 5.60379 26.8675 4.05882 24.9685 4.05882H23.9759L22.623 0H12.555L11.2021 4.05882H10.2095C8.31049 4.05882 6.76553 5.60379 6.76553 7.50287V8.11764H1.35376V46H33.8244V32.5486L44.0046 16.6857C45.2133 14.8023 44.6644 12.2865 42.7808 11.0776ZM9.47132 7.50287C9.47132 7.09581 9.80243 6.7647 10.2094 6.7647H13.1523L14.5053 2.70588H20.6726L22.0255 6.7647H24.9685C25.3754 6.7647 25.7065 7.09581 25.7065 7.50287V10.8235H9.47123V7.50287H9.47132ZM31.1184 43.2941H4.05955V10.8235H6.76544V13.5294H28.4125V10.8235H31.1184V21.7353L27.7019 27.0588H14.8831V29.7647H25.9654L24.2288 32.4706H14.8831V35.1765H23.1324L23.8768 40.5338L29.8503 38.7408L31.1185 36.7648V43.2941H31.1184ZM41.7272 15.2243L28.1137 36.437L26.1225 37.0347L25.8364 34.9756L39.4501 13.7628C39.853 13.1351 40.6916 12.952 41.3194 13.355C41.9472 13.7578 42.1301 14.5964 41.7272 15.2243Z" fill="#2B2D33"/>
</g>
<defs>
<clipPath id="clip0_2_2426">
<rect width="46" height="46" fill="white"/>
</clipPath>
</defs>
</svg>
