<svg width="46" height="46" viewBox="0 0 46 46" fill="none" xmlns="http://www.w3.org/2000/svg">
<path d="M5.41309 21.6523H13.5215V24.3477H5.41309V21.6523Z" fill="#2B2D33"/>
<path d="M28.4131 35.1738C32.141 35.1738 35.1738 32.141 35.1738 28.4131C35.1738 24.6852 32.141 21.6523 28.4131 21.6523C24.6852 21.6523 21.6523 24.6852 21.6523 28.4131C21.6523 32.141 24.6852 35.1738 28.4131 35.1738ZM28.4131 24.3477C30.6548 24.3477 32.4785 26.1714 32.4785 28.4131C32.4785 30.6548 30.6548 32.4785 28.4131 32.4785C26.1714 32.4785 24.3477 30.6548 24.3477 28.4131C24.3477 26.1714 26.1714 24.3477 28.4131 24.3477Z" fill="#2B2D33"/>
<path d="M37.3657 10.8262L34.6591 5.41309H22.1671L19.4605 10.8262H13.5215V5.41309H5.41309V10.8262H0V40.5869H46V10.8262H37.3657ZM8.1084 8.1084H10.8262V10.8262H8.1084V8.1084ZM21.1264 13.5215L23.8329 8.1084H32.9933L35.6999 13.5215H43.3047V16.2393H2.69531V13.5215H21.1264ZM37.8916 28.4131C37.8916 33.6396 33.6396 37.8916 28.4131 37.8916C23.1866 37.8916 18.9346 33.6396 18.9346 28.4131C18.9346 23.1866 23.1866 18.9346 28.4131 18.9346C33.6396 18.9346 37.8916 23.1866 37.8916 28.4131ZM2.69531 37.8916V18.9346H20.7832C18.0141 21.168 16.2393 24.5869 16.2393 28.4131C16.2393 32.2393 18.0141 35.6582 20.7832 37.8916H2.69531ZM36.043 37.8916C38.812 35.6582 40.5869 32.2393 40.5869 28.4131C40.5869 24.5869 38.812 21.168 36.043 18.9346H43.3047V37.8916H36.043Z" fill="#2B2D33"/>
</svg>
