<svg width="46" height="46" viewBox="0 0 46 46" fill="none" xmlns="http://www.w3.org/2000/svg">
<path d="M32.3452 16.3516V8.87539L23.4698 0H0.00146484V40.6094H21.741V46H45.9988V16.3516H32.3452ZM24.2593 4.60117L27.744 8.08594H24.2593V4.60117ZM10.7827 16.3516V19.0469H21.741V21.7422H10.7827V24.4375H21.741V27.1328H10.7827V29.8281H21.741V37.9141H2.69678V2.69531H21.564V10.7812H29.6499V16.3516H10.7827ZM43.3034 43.3047H24.4363V19.0469H43.3034V43.3047Z" fill="#2B2D33"/>
<path d="M27.1316 37.9141H29.8269V40.6094H27.1316V37.9141Z" fill="#2B2D33"/>
<path d="M32.5222 37.9141H35.2175V40.6094H32.5222V37.9141Z" fill="#2B2D33"/>
<path d="M37.9128 37.9141H40.6082V40.6094H37.9128V37.9141Z" fill="#2B2D33"/>
<path d="M27.1316 32.5234H29.8269V35.2188H27.1316V32.5234Z" fill="#2B2D33"/>
<path d="M32.5222 32.5234H35.2175V35.2188H32.5222V32.5234Z" fill="#2B2D33"/>
<path d="M37.9128 32.5234H40.6082V35.2188H37.9128V32.5234Z" fill="#2B2D33"/>
<path d="M27.1316 27.1328H29.8269V29.8281H27.1316V27.1328Z" fill="#2B2D33"/>
<path d="M32.5222 27.1328H35.2175V29.8281H32.5222V27.1328Z" fill="#2B2D33"/>
<path d="M27.1316 21.7422H40.6082V24.4375H27.1316V21.7422Z" fill="#2B2D33"/>
<path d="M37.9128 27.1328H40.6082V29.8281H37.9128V27.1328Z" fill="#2B2D33"/>
<path d="M5.39209 27.1328H8.0874V29.8281H5.39209V27.1328Z" fill="#2B2D33"/>
<path d="M5.39209 21.7422H8.0874V24.4375H5.39209V21.7422Z" fill="#2B2D33"/>
<path d="M5.39209 16.3516H8.0874V19.0469H5.39209V16.3516Z" fill="#2B2D33"/>
<path d="M5.39209 10.9609H8.0874V13.6562H5.39209V10.9609Z" fill="#2B2D33"/>
<path d="M10.7827 10.9609H18.8687V13.6562H10.7827V10.9609Z" fill="#2B2D33"/>
</svg>
