<svg width="46" height="46" viewBox="0 0 46 46" fill="none" xmlns="http://www.w3.org/2000/svg">
<g clip-path="url(#clip0_2_2523)">
<path d="M23 46C22.5553 45.6664 13.94 41.6042 8.02726 31.4663C4.59795 25.5865 2.78528 18.8721 2.78528 12.0489V5.47845C4.29204 5.48222 4.04281 5.47054 4.41054 5.48851C15.2421 6.01508 22.7986 0.0723237 23 0C23.269 0.0964016 30.68 6.02883 41.6126 5.48779C41.9538 5.4709 41.7046 5.48204 43.2146 5.47845V12.0489C43.2146 18.8721 41.4019 25.5865 37.9726 31.4663C32.0636 41.5977 23.4782 45.6412 23 46ZM5.48057 8.21417V12.0489C5.48057 24.6436 12.1736 36.3877 23 42.8862C33.8263 36.3876 40.5193 24.6436 40.5193 12.0489V8.21165C36.8839 8.22513 29.9376 7.57592 23.0004 3.22474C16.2108 7.49237 9.51919 8.24499 5.48057 8.21417Z" fill="#2B2D33"/>
<path d="M23 39.8238C22.8152 39.6119 8.1759 30.8562 8.1759 12.0495V10.7667L9.3692 10.6291C17.3715 9.70632 22.4942 6.40737 23 6.18896C23.4853 6.39848 28.6828 9.71261 36.6308 10.6291L37.824 10.7667V12.0495C37.8241 28.5351 26.7617 37.1451 23 39.8238ZM10.891 13.1476C11.2211 22.3266 15.6783 30.9248 23 36.4961C30.3217 30.9247 34.7789 22.3266 35.1091 13.1476C30.8736 12.5247 26.8092 11.2151 23 9.24543C19.1908 11.2151 15.1263 12.5247 10.891 13.1476Z" fill="#2B2D33"/>
<path d="M21.6523 27.5989L16.6565 22.603L18.5623 20.6972L21.6523 23.7872L28.7853 16.6543L30.691 18.56L21.6523 27.5989Z" fill="#2B2D33"/>
</g>
<defs>
<clipPath id="clip0_2_2523">
<rect width="46" height="46" fill="white"/>
</clipPath>
</defs>
</svg>
