<svg width="46" height="46" viewBox="0 0 46 46" fill="none" xmlns="http://www.w3.org/2000/svg">
<g clip-path="url(#clip0_2_2556)">
<path d="M17.2158 9.05692C17.2158 6.76239 15.3435 4.89673 13.0427 4.89673C10.7415 4.89673 8.86914 6.76239 8.86914 9.05692C8.86914 11.3507 10.7415 13.2175 13.0427 13.2175C15.3435 13.2175 17.2158 11.3507 17.2158 9.05692ZM13.0427 10.5306C12.2278 10.5306 11.5645 9.86937 11.5645 9.05692C11.5645 8.24481 12.2278 7.58362 13.0427 7.58362C13.8572 7.58362 14.5205 8.24446 14.5205 9.05692C14.5205 9.86937 13.8572 10.5306 13.0427 10.5306Z" fill="#2B2D33"/>
<path d="M25.6181 37.6856V20.7581H15.702C15.7406 20.7044 19.2508 15.9322 19.2508 15.9322C20.7665 13.8714 22.1275 11.7941 22.1275 9.05702C22.1275 4.08157 18.0821 0.0305329 13.0982 0H13.0417C8.03294 0 3.95769 4.06262 3.95769 9.05702C3.95769 11.7941 5.31868 13.8714 6.83444 15.9322L10.3833 20.7581H0V23.445H22.9228V40.3725H46V37.6856H25.6181ZM9.00789 14.3434C7.71954 12.5915 6.653 10.9845 6.653 9.05702C6.653 5.55592 9.49992 2.70584 13.0077 2.68689H13.0428C16.5653 2.68689 19.4322 5.54434 19.4322 9.05702C19.4322 10.9845 18.366 12.5922 17.0773 14.3434C17.0773 14.3434 13.0579 19.8176 13.0452 19.8337L9.00789 14.3434Z" fill="#2B2D33"/>
<path d="M20.065 26.1172H0V28.8041H17.3697V46H46V43.3131H20.065V26.1172Z" fill="#2B2D33"/>
</g>
<defs>
<clipPath id="clip0_2_2556">
<rect width="46" height="46" fill="white"/>
</clipPath>
</defs>
</svg>
