<svg width="46" height="46" viewBox="0 0 46 46" fill="none" xmlns="http://www.w3.org/2000/svg">
<path d="M46 32.0609L39.9594 23H32.4706V12.1765H27.0588V4.025H25.7059C24.2325 4.025 23.0338 2.82629 23.0338 1.35294V0H9.43676V1.35294C9.43676 2.82629 8.23806 4.025 6.76471 4.025H5.41176V12.1765H0V41.9412H5.58296C6.18529 44.2727 8.30643 46 10.8235 46C13.3405 46 15.4618 44.2727 16.064 41.9412H29.7647H31.2888C31.8912 44.2727 34.0123 46 36.5294 46C39.0464 46 41.1677 44.2727 41.7699 41.9412H46V32.0609ZM38.5112 25.7059L41.2171 29.7647H32.4706V25.7059H38.5112ZM8.11765 6.55861C9.99788 6.06956 11.4813 4.58611 11.9703 2.70588H20.5002C20.9892 4.58611 22.4727 6.06956 24.3528 6.55861V13.0603C24.3528 18.1586 21.1071 22.5526 16.2352 24.112C11.3634 22.5526 8.11756 18.1586 8.11756 13.0603V6.55861H8.11765ZM2.70588 14.8824H5.52613C5.83857 17.359 6.78897 19.6874 8.32176 21.6986C11.5065 25.8774 16.1111 26.8759 16.2353 26.9326C16.4798 26.821 20.8658 26.0065 24.1488 21.6986C25.6815 19.6873 26.632 17.359 26.9445 14.8824H29.7647V29.7647H2.70588V14.8824ZM10.8235 43.2941C9.33151 43.2941 8.11765 42.0803 8.11765 40.5882C8.11765 39.0962 9.33151 37.8824 10.8235 37.8824C12.3156 37.8824 13.5294 39.0962 13.5294 40.5882C13.5294 42.0803 12.3156 43.2941 10.8235 43.2941ZM29.7647 39.2353H16.064C14.6727 33.8494 6.97757 33.8368 5.58296 39.2353H2.70588V32.4706H29.7647V39.2353ZM36.5294 43.2941C35.0374 43.2941 33.8235 42.0803 33.8235 40.5882C33.8235 39.0962 35.0374 37.8824 36.5294 37.8824C38.0214 37.8824 39.2353 39.0962 39.2353 40.5882C39.2353 42.0803 38.0214 43.2941 36.5294 43.2941ZM43.2941 39.2353H41.7699C41.1677 36.9037 39.0464 35.1765 36.5294 35.1765C34.9142 35.1765 33.463 35.8888 32.4706 37.0144V32.4706H43.021L43.2941 32.8803V39.2353Z" fill="#2B2D33"/>
<path d="M21.497 10.0088L19.5837 8.09546L14.8003 12.8788L12.887 10.9655L10.9736 12.8788L14.8003 16.7055L21.497 10.0088Z" fill="#2B2D33"/>
</svg>
