<svg width="46" height="46" viewBox="0 0 46 46" fill="none" xmlns="http://www.w3.org/2000/svg">
<path d="M0 6.62527V45.1008H46V0.89917L0 6.62527ZM19.8555 42.4054H13.5664V37.9132H15.3633V39.7101H18.0586V37.9132H19.8555V42.4054ZM19.8555 35.2179H13.5664V30.7257H15.3633V32.5226H18.0586V30.7257H19.8555V35.2179ZM33.332 42.4054H27.043V37.9132H28.8398V39.7101H31.5352V37.9132H33.332V42.4054ZM36.9258 42.4054H36.0273V35.2179H24.3477V42.4054H22.5508V28.0304H10.8711V42.4054H9.07422V26.2335H36.9258V42.4054ZM36.9258 23.5382H9.07422V21.7413H36.9258V23.5382ZM43.3047 42.4054H39.6211V19.046H6.37891V42.4054H2.69531V15.4522H43.3047V42.4054ZM43.3047 12.7569H2.69531V9.00586L43.3047 3.95071V12.7569Z" fill="#2B2D33"/>
</svg>
