<svg width="80" height="80" viewBox="0 0 80 80" fill="none" xmlns="http://www.w3.org/2000/svg">
<path d="M51.5625 24.2803V0.842773H0V43.0303H4.6875V55.7198L17.377 43.0303H28.125V66.4678H62.623L75.3125 79.1575V66.4679H80V24.2804H51.5625V24.2803ZM15.4353 38.3428L9.375 44.4032V38.3428H4.6875V5.53027H46.875V38.3428H15.4353ZM75.3125 61.7803H70.625V67.8407L64.5645 61.7803H32.8125V43.0303H51.5625V28.9678H75.3125V61.7803Z" fill="#2B2D33"/>
<path d="M25.7812 10.2178C21.9042 10.2178 18.75 13.372 18.75 17.249H23.4375C23.4375 15.9567 24.4889 14.9053 25.7812 14.9053C27.0736 14.9053 28.125 15.9567 28.125 17.249C28.125 18.1226 27.6439 18.9184 26.8695 19.3259C24.7527 20.4398 23.4375 22.7462 23.4375 25.3453H28.125C28.125 24.5181 28.4977 23.7661 29.0522 23.4743C31.3716 22.2539 32.8125 19.8686 32.8125 17.249C32.8125 13.372 29.6583 10.2178 25.7812 10.2178Z" fill="#2B2D33"/>
<path d="M23.4375 28.9678H28.125V33.6553H23.4375V28.9678Z" fill="#2B2D33"/>
<path d="M37.5 52.4053H70.625V57.0928H37.5V52.4053Z" fill="#2B2D33"/>
</svg>
