<svg width="60" height="60" viewBox="0 0 60 60" fill="none" xmlns="http://www.w3.org/2000/svg">
<g clip-path="url(#clip0_2_2492)">
<path d="M59.9843 36.727L57.0306 33.7733L59.1514 31.6525L56.6616 29.1627L54.5407 31.2835L51.587 28.3298L49.5563 30.3605L48.5783 22.347L49.134 21.7914C52.3347 18.5907 54.6067 14.5778 55.7045 10.1864C56.1212 8.52004 55.6446 6.79992 54.4302 5.58534C53.2156 4.37076 51.4957 3.89434 49.8291 4.31102C45.4377 5.40893 41.4247 7.68093 38.2241 10.8815L37.6685 11.4372L29.5996 10.4525L31.6546 8.3975L28.7009 5.44379L30.8217 3.32297L28.3318 0.833001L26.211 2.95383L23.2572 0L14.6318 8.62544L7.65183 7.77354L0.876199 14.5493L6.62868 16.6284L4.75012 18.507L7.23996 20.9969L10.2863 17.9504L15.3071 19.765L12.4118 22.6603L14.9016 25.1501L18.9648 21.087L26.1939 23.6999L14.7151 37.2245L6.37117 37.1208L0.0153809 43.4766L11.3752 48.64L16.5385 59.9998L22.8943 53.644L22.7908 45.3L36.3349 33.8047L38.9245 40.992L34.8339 45.0825L37.3238 47.5724L40.2434 44.6527L42.0713 49.7259L39.0202 52.7771L41.51 55.2669L43.3904 53.3866L45.4638 59.1412L52.2416 52.3634L51.383 45.3283L59.9843 36.727ZM51.587 33.3095L55.0046 36.727L50.8415 40.8903L50.098 34.7985L51.587 33.3095ZM50.683 7.72683C51.3387 7.56321 51.7809 7.91556 51.9402 8.07519C52.0996 8.23447 52.4525 8.67603 52.2886 9.33238C52.105 10.0666 51.8821 10.7879 51.6236 11.4948L48.5206 8.39175C49.2275 8.13329 49.9488 7.9104 50.683 7.72683ZM23.2572 4.97969L26.6748 8.39726L25.1615 9.91068L19.0697 9.16723L23.2572 4.97969ZM7.2841 13.1211L8.9285 11.4768L34.5069 14.5986L30.6172 18.4883L28.6258 20.8346L7.2841 13.1211ZM17.6417 53.9171L14.0345 45.9809L6.09827 42.3736L7.81169 40.6602L14.7835 40.7468L19.2688 45.2321L19.3552 52.2037L17.6417 53.9171ZM21.118 42.1017L17.9138 38.8976L33.2088 20.8765L40.7139 13.3713C42.0375 12.0477 43.5243 10.9111 45.1298 9.98075L50.0348 14.8857C49.1043 16.4912 47.9678 17.9779 46.6442 19.3016L39.139 26.8067L21.118 42.1017ZM46.8964 52.7291L39.2014 31.372L41.4721 29.4447L41.5269 29.3982L45.4167 25.5085L48.5386 51.0869L46.8964 52.7291Z" fill="#2B2D33"/>
</g>
<defs>
<clipPath id="clip0_2_2492">
<rect width="60" height="60" fill="white"/>
</clipPath>
</defs>
</svg>
