<svg width="60" height="60" viewBox="0 0 60 60" fill="none" xmlns="http://www.w3.org/2000/svg">
<g clip-path="url(#clip0_2_2489)">
<path d="M42.1211 46.88C42.887 49.5497 45.3484 51.5099 48.2607 51.5099C51.1729 51.5099 53.6343 49.5497 54.3997 46.88H60V29.81C60 23.1528 54.5842 17.737 47.9269 17.737H39.3306V8.55469H0V46.88H5.94818C6.71402 49.5497 9.17542 51.5099 12.0877 51.5099C15 51.5099 17.4614 49.5497 18.2268 46.88H42.1211ZM56.4848 29.81V30.5507H49.6655V21.4297C53.5533 22.2354 56.4848 25.6865 56.4848 29.81ZM35.8154 12.0699V31.8109H3.51517V12.0699H35.8154ZM12.0872 47.9942C10.5038 47.9942 9.2157 46.7061 9.2157 45.1222C9.2157 43.5388 10.5038 42.2507 12.0872 42.2507C13.6711 42.2507 14.9593 43.5388 14.9593 45.1222C14.9593 46.7061 13.6711 47.9942 12.0872 47.9942ZM18.2268 43.3649C17.4614 40.6952 14.9995 38.7355 12.0872 38.7355C9.17542 38.7355 6.71356 40.6956 5.94818 43.3649H3.51517V35.3261H35.8154V43.3649H18.2268ZM48.2607 47.9942C46.6768 47.9942 45.3886 46.7061 45.3886 45.1222C45.3886 43.5388 46.6772 42.2507 48.2607 42.2507C49.8441 42.2507 51.1322 43.5388 51.1322 45.1222C51.1322 46.7061 49.8441 47.9942 48.2607 47.9942ZM54.3997 43.3649C53.6343 40.6952 51.1729 38.7355 48.2607 38.7355C45.3484 38.7355 42.887 40.6956 42.1211 43.3649H39.3306V21.2521H46.1499V34.0663H56.4848V43.3649H54.3997Z" fill="#2B2D33"/>
</g>
<defs>
<clipPath id="clip0_2_2489">
<rect width="60" height="60" fill="white"/>
</clipPath>
</defs>
</svg>
