<svg width="60" height="60" viewBox="0 0 60 60" fill="none" xmlns="http://www.w3.org/2000/svg">
<g clip-path="url(#clip0_2_2495)">
<path d="M60 59.9991L47.8949 45.9366H51.0933V7.03125C51.0933 3.15399 47.9393 0 44.062 0H15.9375C12.0607 0 8.90671 3.15399 8.90671 7.03125V45.9366H12.1051L0 59.9991H60ZM7.66479 56.4835L10.6911 52.9678H49.3085L52.3347 56.4835H7.66479ZM12.4223 38.9058H47.5777V42.421H12.4223V38.9058ZM47.5777 11.543V21.3277H31.7578V11.543H47.5777ZM28.2422 21.3277H12.4223V11.543H28.2422V21.3277ZM47.5777 24.8433V28.3589H40.5464C37.6387 28.3589 35.2734 30.7246 35.2734 33.6324C35.2734 34.2485 35.3806 34.8399 35.5756 35.3902H24.424C24.6194 34.8399 24.7266 34.2485 24.7266 33.6324C24.7266 30.7246 22.3608 28.3589 19.4531 28.3589H12.4219V24.8433H47.5777ZM38.7891 33.6324C38.7891 32.6628 39.5773 31.8745 40.5464 31.8745H47.5777V35.3902H40.5464C39.5773 35.3902 38.7891 34.6014 38.7891 33.6324ZM19.4531 31.8745C20.4227 31.8745 21.2109 32.6628 21.2109 33.6324C21.2109 34.6014 20.4227 35.3902 19.4531 35.3902H12.4223V31.8745H19.4531ZM15.9375 3.51562H44.062C46.0007 3.51562 47.5777 5.09262 47.5777 7.03125V8.02734H12.4223V7.03125C12.4223 5.09262 13.9993 3.51562 15.9375 3.51562ZM43.2559 45.9366L46.2822 49.4522H13.7178L16.7441 45.9366H43.2559Z" fill="#2B2D33"/>
</g>
<defs>
<clipPath id="clip0_2_2495">
<rect width="60" height="60" fill="white"/>
</clipPath>
</defs>
</svg>
