<svg width="60" height="60" viewBox="0 0 60 60" fill="none" xmlns="http://www.w3.org/2000/svg">
<g clip-path="url(#clip0_2_2504)">
<path d="M7.14966 37.8557H10.6658V41.3719H7.14966V37.8557Z" fill="#2B2D33"/>
<path d="M14.1819 37.8557H17.698V41.3719H14.1819V37.8557Z" fill="#2B2D33"/>
<path d="M21.2144 37.8557H24.7305V41.3719H21.2144V37.8557Z" fill="#2B2D33"/>
<path d="M28.2468 37.8557H31.763V41.3719H28.2468V37.8557Z" fill="#2B2D33"/>
<path d="M35.2793 37.8557H38.7954V41.3719H35.2793V37.8557Z" fill="#2B2D33"/>
<path d="M42.3115 37.8557H45.8276V41.3719H42.3115V37.8557Z" fill="#2B2D33"/>
<path d="M13.2101 50.9048C14.9194 50.0501 16.9607 50.0501 18.67 50.9048C21.3639 52.2517 24.581 52.2517 27.2749 50.9048C28.9842 50.0501 31.0255 50.0501 32.7348 50.9048C34.0817 51.5783 35.5597 51.915 37.0373 51.915C38.5149 51.915 39.9928 51.5783 41.3397 50.9048C43.049 50.0501 45.0903 50.0501 46.7996 50.9048C49.4936 52.2517 52.7106 52.2517 55.4045 50.9048L58.9207 49.1467L57.3482 46.0017L53.8321 47.7597C53.2858 48.033 52.7055 48.2187 52.1131 48.3173L60 30.8231H56.3763V23.7907H51.102V16.7583C44.5134 16.7583 30.6072 16.7583 26.4886 16.7583V23.7907H21.2143V30.8232H17.6981V13.2422H15.9401V6.20989H12.4239V1.05273H8.90765V6.20977H5.39151V13.2422H3.63344V30.8232H0V48.6765L4.61577 50.91C7.30779 52.2518 10.5196 52.25 13.2101 50.9048ZM52.8602 27.3071V30.8232H45.8278V27.3071H52.8602ZM40.5534 20.2747H47.5858V23.7908H40.5534V20.2747ZM42.3116 27.3071V30.8232H35.2792V27.3071H42.3116ZM30.0049 20.2747H37.0373V23.7908H30.0049V20.2747ZM24.7305 27.3071H31.7629V30.8232H24.7305V27.3071ZM8.90765 9.72615H12.4238V13.2423H8.90765V9.72615ZM7.14958 16.7586H14.182V30.8234H7.14958V16.7586ZM3.51614 34.3395H54.5576L48.4829 47.8139C48.4459 47.7964 48.4088 47.7784 48.372 47.7599C45.6781 46.413 42.461 46.413 39.7671 47.7599C38.0578 48.6146 36.0165 48.6146 34.3072 47.7599C32.9603 47.0863 31.4823 46.7497 30.0047 46.7497C28.5272 46.7497 27.0492 47.0863 25.7023 47.7599C23.993 48.6146 21.9517 48.6146 20.2424 47.7599C17.5485 46.413 14.3314 46.413 11.6375 47.7599C9.92817 48.6146 7.88689 48.6146 6.17756 47.7599L3.51602 46.4718V34.3395H3.51614Z" fill="#2B2D33"/>
<path d="M48.3722 54.7923C45.6782 53.4454 42.4612 53.4454 39.7673 54.7923C38.058 55.647 36.0167 55.647 34.3074 54.7923C31.6134 53.4454 28.3964 53.4454 25.7025 54.7923C23.9931 55.647 21.9519 55.647 20.2425 54.7923C17.5486 53.4454 14.3316 53.4454 11.6377 54.7923C9.92833 55.647 7.88729 55.647 6.17772 54.7923L2.66158 53.0342L1.08911 56.1792L4.60526 57.9373C7.29917 59.2842 10.5162 59.2842 13.2101 57.9373C14.9195 57.0826 16.9607 57.0826 18.6701 57.9373C21.364 59.2842 24.581 59.2842 27.2749 57.9373C28.9843 57.0826 31.0256 57.0826 32.7349 57.9373C34.0818 58.6108 35.5597 58.9475 37.0373 58.9475C38.5149 58.9475 39.9929 58.6108 41.3398 57.9373C43.0491 57.0826 45.0904 57.0826 46.7997 57.9373C49.4936 59.2842 52.7107 59.2842 55.4046 57.9373L58.9207 56.1792L57.3482 53.0342L53.8321 54.7923C52.1228 55.647 50.0815 55.647 48.3722 54.7923Z" fill="#2B2D33"/>
</g>
<defs>
<clipPath id="clip0_2_2504">
<rect width="60" height="60" fill="white"/>
</clipPath>
</defs>
</svg>
