<svg width="60" height="60" viewBox="0 0 60 60" fill="none" xmlns="http://www.w3.org/2000/svg">
<path d="M60 27.1097H45.9375V17.6564H39.4528V4.6875H10.0003V17.6564H3.51562V30.6253H0V55.2347H54.7266C57.6343 55.2347 60 52.869 60 49.9612C60 48.0881 59.0181 46.4397 57.5423 45.504C59.0639 43.9233 60 41.776 60 39.4144V27.1097ZM42.4219 30.6253H32.9686V21.172H42.4219V30.6253ZM29.453 21.172V30.6253H20.0002V21.172H29.453ZM35.9372 17.6564H26.4844V8.20312H35.9372V17.6564ZM13.5159 8.20312H22.9688V17.6564H13.5159V8.20312ZM7.03125 21.172H16.4845V30.6253H7.03125V21.172ZM54.7266 51.7191H3.51562V48.2034H54.7266C55.6956 48.2034 56.4844 48.9917 56.4844 49.9612C56.4844 50.9303 55.6956 51.7191 54.7266 51.7191ZM56.4844 39.4144C56.4844 42.3221 54.1187 44.6878 51.2109 44.6878H3.51562V34.1409H45.9375V30.6253H56.4844V39.4144Z" fill="#2B2D33"/>
<path d="M49.4531 37.7109H52.9688V41.2266H49.4531V37.7109Z" fill="#2B2D33"/>
<path d="M42.4219 37.7109H45.9375V41.2266H42.4219V37.7109Z" fill="#2B2D33"/>
<path d="M35.3906 37.7109H38.9062V41.2266H35.3906V37.7109Z" fill="#2B2D33"/>
</svg>
