<svg width="110" height="38" viewBox="0 0 110 38" fill="none" xmlns="http://www.w3.org/2000/svg">
<path d="M1.848 27V11.352H5.712L8.232 18.312C8.392 18.76 8.544 19.232 8.688 19.728C8.832 20.224 8.984 20.712 9.144 21.192H9.24C9.4 20.712 9.544 20.224 9.672 19.728C9.816 19.232 9.968 18.76 10.128 18.312L12.6 11.352H16.44V27H13.224V21.264C13.224 20.752 13.248 20.184 13.296 19.56C13.36 18.92 13.424 18.28 13.488 17.64C13.568 17 13.632 16.432 13.68 15.936H13.584L12.312 19.656L10.08 25.632H8.136L5.904 19.656L4.656 15.936H4.56C4.624 16.432 4.688 17 4.752 17.64C4.816 18.28 4.872 18.92 4.92 19.56C4.984 20.184 5.016 20.752 5.016 21.264V27H1.848ZM22.8413 27.288C21.7533 27.288 20.8893 26.944 20.2493 26.256C19.6093 25.552 19.2893 24.696 19.2893 23.688C19.2893 22.44 19.8173 21.464 20.8733 20.76C21.9293 20.056 23.6333 19.584 25.9853 19.344C25.9533 18.816 25.7933 18.4 25.5053 18.096C25.2333 17.776 24.7693 17.616 24.1133 17.616C23.6173 17.616 23.1133 17.712 22.6013 17.904C22.0893 18.096 21.5453 18.36 20.9693 18.696L19.6973 16.368C20.4493 15.904 21.2493 15.528 22.0973 15.24C22.9613 14.952 23.8573 14.808 24.7853 14.808C26.3053 14.808 27.4733 15.248 28.2893 16.128C29.1053 17.008 29.5133 18.36 29.5133 20.184V27H26.6333L26.3933 25.776H26.2973C25.8013 26.224 25.2653 26.592 24.6893 26.88C24.1293 27.152 23.5133 27.288 22.8413 27.288ZM24.0413 24.552C24.4413 24.552 24.7853 24.464 25.0733 24.288C25.3773 24.096 25.6813 23.848 25.9853 23.544V21.456C24.7373 21.616 23.8733 21.872 23.3933 22.224C22.9133 22.56 22.6733 22.96 22.6733 23.424C22.6733 23.808 22.7933 24.096 23.0333 24.288C23.2893 24.464 23.6253 24.552 24.0413 24.552ZM32.4975 27V15.096H36.0255V19.488H37.2255L38.2815 17.304C38.7775 16.28 39.3135 15.608 39.8895 15.288C40.4815 14.968 41.2015 14.808 42.0495 14.808C42.4015 14.808 42.7215 14.864 43.0095 14.976L42.4575 18.24C42.3935 18.208 42.3215 18.184 42.2415 18.168C42.1615 18.152 42.0815 18.144 42.0015 18.144C41.6975 18.144 41.4255 18.216 41.1855 18.36C40.9455 18.504 40.7135 18.832 40.4895 19.344L39.8655 20.76L43.8735 27H40.0095L37.2735 22.248H36.0255V27H32.4975ZM50.1503 27.288C49.0463 27.288 48.0463 27.048 47.1503 26.568C46.2703 26.072 45.5663 25.36 45.0383 24.432C44.5263 23.488 44.2703 22.36 44.2703 21.048C44.2703 19.72 44.5583 18.592 45.1343 17.664C45.7103 16.736 46.4703 16.032 47.4143 15.552C48.3583 15.056 49.3743 14.808 50.4622 14.808C51.1983 14.808 51.8463 14.928 52.4063 15.168C52.9823 15.408 53.4943 15.712 53.9423 16.08L52.2863 18.36C51.7263 17.896 51.1903 17.664 50.6783 17.664C49.8303 17.664 49.1503 17.968 48.6383 18.576C48.1423 19.184 47.8943 20.008 47.8943 21.048C47.8943 22.072 48.1423 22.896 48.6383 23.52C49.1503 24.128 49.7903 24.432 50.5583 24.432C50.9423 24.432 51.3183 24.352 51.6863 24.192C52.0543 24.016 52.3903 23.808 52.6943 23.568L54.0863 25.872C53.4943 26.384 52.8543 26.752 52.1663 26.976C51.4783 27.184 50.8063 27.288 50.1503 27.288ZM56.2631 27.288C55.9911 27.288 55.7431 27.264 55.5191 27.216C55.2951 27.168 55.0711 27.104 54.8471 27.024L55.4231 23.856C55.5191 23.872 55.6151 23.896 55.7111 23.928C55.8071 23.944 55.9111 23.952 56.0231 23.952C56.3431 23.952 56.6151 23.816 56.8391 23.544C57.0791 23.272 57.2391 22.816 57.3191 22.176C57.4791 20.992 57.6151 19.816 57.7271 18.648C57.8551 17.464 57.9911 16.28 58.1351 15.096H66.9191V27H63.3911V17.856H60.9191C60.8071 18.736 60.6951 19.624 60.5831 20.52C60.4871 21.4 60.3751 22.28 60.2471 23.16C60.0551 24.488 59.6311 25.512 58.9751 26.232C58.3191 26.936 57.4151 27.288 56.2631 27.288ZM73.0209 27.288C71.9329 27.288 71.0689 26.944 70.4289 26.256C69.7889 25.552 69.4689 24.696 69.4689 23.688C69.4689 22.44 69.9969 21.464 71.0529 20.76C72.1089 20.056 73.8129 19.584 76.1649 19.344C76.1329 18.816 75.9729 18.4 75.6849 18.096C75.4129 17.776 74.9489 17.616 74.2929 17.616C73.7969 17.616 73.2929 17.712 72.7809 17.904C72.2689 18.096 71.7249 18.36 71.1489 18.696L69.8769 16.368C70.6289 15.904 71.4289 15.528 72.2769 15.24C73.1409 14.952 74.0369 14.808 74.9649 14.808C76.4849 14.808 77.6529 15.248 78.4689 16.128C79.2849 17.008 79.6929 18.36 79.6929 20.184V27H76.8129L76.5729 25.776H76.4769C75.9809 26.224 75.4449 26.592 74.8689 26.88C74.3089 27.152 73.6929 27.288 73.0209 27.288ZM74.2209 24.552C74.6209 24.552 74.9649 24.464 75.2529 24.288C75.5569 24.096 75.8609 23.848 76.1649 23.544V21.456C74.9169 21.616 74.0529 21.872 73.5729 22.224C73.0929 22.56 72.8529 22.96 72.8529 23.424C72.8529 23.808 72.9729 24.096 73.2129 24.288C73.4689 24.464 73.8049 24.552 74.2209 24.552ZM82.6772 27V15.096H86.0852V18.408C86.0852 19 86.0532 19.672 85.9892 20.424C85.9252 21.16 85.8612 21.896 85.7972 22.632H85.8692C86.0612 22.264 86.2932 21.848 86.5652 21.384C86.8372 20.904 87.0612 20.488 87.2372 20.136L90.3332 15.096H93.5492V27H90.1412V23.688C90.1412 23.08 90.1732 22.408 90.2372 21.672C90.3172 20.936 90.3892 20.2 90.4532 19.464H90.3572C90.1652 19.816 89.9332 20.24 89.6612 20.736C89.4052 21.216 89.1812 21.624 88.9892 21.96L85.8932 27H82.6772ZM88.2212 13.272C86.8452 13.272 85.8212 12.92 85.1492 12.216C84.4772 11.496 84.1252 10.536 84.0932 9.336H86.8292C86.8612 10.008 86.9732 10.52 87.1652 10.872C87.3572 11.224 87.7092 11.4 88.2212 11.4C88.7332 11.4 89.0852 11.224 89.2772 10.872C89.4852 10.52 89.5972 10.008 89.6132 9.336H92.3492C92.3172 10.536 91.9652 11.496 91.2932 12.216C90.6212 12.92 89.5972 13.272 88.2212 13.272ZM96.6694 27V15.096H100.197V19.392H104.013V15.096H107.541V27H104.013V22.464H100.197V27H96.6694Z" fill="white"/>
</svg>
